PathFileType	4	(X/Y/Z)	T1_P1_Vision_NoMovement_1_0-649.trc
DataRate	CameraRate	NumFrames	NumMarkers	Units	OrigDataRate	OrigDataStartFrame	OrigNumFrames
60	60	4	27	m	60	81	649
Frame#	Time	RHip			RKnee			RAnkle			RBigToe			RSmallToe			RHeel			LHip			LKnee			LAnkle			LBigToe			LSmallToe			LHeel			Neck			Head			Nose			RShoulder			RElbow			RWrist			RThumb			RIndex			RPinky			LShoulder			LElbow			LWrist			LThumb			LIndex			LPinky		
		X1	Y1	Z1	X2	Y2	Z2	X3	Y3	Z3	X4	Y4	Z4	X5	Y5	Z5	X6	Y6	Z6	X7	Y7	Z7	X8	Y8	Z8	X9	Y9	Z9	X10	Y10	Z10	X11	Y11	Z11	X12	Y12	Z12	X13	Y13	Z13	X14	Y14	Z14	X15	Y15	Z15	X16	Y16	Z16	X17	Y17	Z17	X18	Y18	Z18	X19	Y19	Z19	X20	Y20	Z20	X21	Y21	Z21	X22	Y22	Z22	X23	Y23	Z23	X24	Y24	Z24	X25	Y25	Z25	X26	Y26	Z26	X27	Y27	Z27
82	1.3666666666666667	-66.35151165041904	3789.747723896309	-546.8267398965919	284.5393717471428	3970.3944564290487	-525.42061234554	638.8746386000515	4152.275255977712	-532.2157880988314	697.1289934724116	4023.3411918641777	-458.7248051797408	688.0529580444725	3966.5056331755477	-502.1414910936469	674.9657817500473	4162.633490388403	-528.2601770140718	-102.42301774616692	3900.0373011047805	-360.38879170947956	241.44059874946637	4004.0394336292757	-372.07425785837	619.5819062794891	4250.131125601019	-449.5503679331099	672.9386028764344	3997.9768977016142	-351.41334124160335	680.4112470687128	4122.370969827398	-341.94408063910544	675.5982744007327	4316.817264049775	-492.1705407013702	-679.9274278795342	3682.850951052742	-489.9448887137241	-922.751187203119	3562.580401404544	-436.4010266792351	-791.061902115558	3562.5743877193177	-393.3174020325306	-558.774270376691	3652.2729137619003	-644.1828049618755	-291.33062344567486	3722.67151894388	-698.3686440184358	-26.698076954136372	3642.48797869491	-608.24632890252	83.1946831862228	3767.091111632998	-568.5611760257381	112.56916808787298	3720.655533063131	-557.1590990355335	98.78866072958968	3659.012836763042	-585.3792386816439	-613.1086414445616	3774.5517766206326	-371.16401166991506	-392.2650406133559	3981.175212261731	-346.0096272329258	-134.32544598599327	3963.3090251492818	-245.40957914990167	2.275295296250978	3879.659554311086	-241.25009061192782	19.956566490716188	3959.2558104761524	-216.4488182851206	-6.949537525930339	3996.2916266302996	-220.05458576172924
83	1.3833333333333333	-66.34896266813496	3789.3518539981787	-546.532450661071	283.64736230942333	3965.711016800473	-524.306039613221	639.0352191724779	4152.071010809988	-532.0888508001526	695.1541870348344	4016.2973376160144	-456.32806024918915	688.27598556798	3964.9376794920336	-500.86764036710855	676.0160009449656	4165.927025908371	-530.3126562906145	-102.64449640343268	3893.4167054325044	-355.2242897277455	240.9560381165116	4003.7854865956815	-371.6296075715519	619.4182225097512	4250.087710947985	-449.3657251405163	672.5784628030767	3999.1983775185186	-351.3676926654434	680.0334888009992	4122.86240187191	-342.0935581510527	675.5809392344948	4319.1360983409095	-493.64640990027544	-679.4479883759795	3684.925180446036	-491.38063965103737	-923.4643648940623	3562.3058918416514	-436.3607718321954	-791.2773668368033	3558.0254129748937	-390.1567796121085	-558.8090240632766	3652.6097955554023	-644.4958891086153	-291.159514836493	3721.9888440090754	-698.7915999140718	-26.686787975551635	3642.572404928668	-608.2499742944716	82.76392602224338	3766.7947958481427	-568.5616223892645	112.6226617711048	3720.3299688260663	-557.5457427803533	98.36453420698801	3654.5432877155563	-584.7729424492308	-613.0520377323885	3778.0227899359766	-372.0602609861507	-392.21985184592563	3981.177302744215	-346.0169932950762	-133.73248649825678	3964.0528991175934	-245.84281723804028	2.2631541325899898	3879.7250303859955	-241.3514104843358	19.90800924424888	3959.0887746571775	-216.43040876334197	-6.98604601783747	3993.30269487719	-219.51662753387058
84	1.4	-66.4170622014191	3786.801563324655	-544.6061721009944	282.71817295316174	3955.698828545236	-521.6999002862888	638.94213679621	4152.0586000831	-532.0147553033826	694.4552282620944	4013.811307019382	-456.20363398349565	688.4762639674232	3965.396713756564	-499.2736983592741	677.4913578444612	4171.135802928653	-532.3784868192052	-102.87574956218059	3887.547679325243	-349.6209645389064	239.41490272439935	4003.0413485363533	-370.86414470041467	620.3511655931043	4251.131374473253	-451.00143907666387	671.3439765345903	3998.6913229168645	-350.29957836904106	680.5344335937609	4124.414973573601	-342.79415268287516	674.5111325795745	4320.367742958208	-495.21522182957744	-677.9929533688056	3685.655492465931	-491.4897473618224	-923.8141933278571	3562.2072416687624	-436.35530092242766	-790.6486505789592	3558.065856481175	-390.06240592243216	-559.0568249934362	3654.8737096215546	-646.4452382228036	-291.00302970117775	3719.059644919116	-698.8328325489668	-26.67730964398614	3642.5813822452315	-608.2650238079981	82.62898203203424	3766.63785174096	-568.5718879208592	112.7069563502859	3720.0552630278517	-558.2460781512025	98.66308699253608	3651.828851708693	-584.8337283889979	-613.5825228536928	3782.272380210763	-372.8271751609012	-392.12296514327875	3981.1193449332163	-346.0428679952157	-131.55362750513098	3965.5985689992604	-246.30310261842175	2.3983806311284224	3881.8589033920834	-242.82616164964546	19.88282778773502	3959.045098607581	-216.45270182430284	-6.981123034658058	3991.932325042712	-219.27571232642157
85	1.4166666666666667	-66.59469000024743	3781.779618574737	-540.7857388229081	282.01528815458136	3945.7625740389167	-518.4153102562219	638.400253238759	4152.353354472747	-532.0825978589145	694.9250244934942	4016.5601086452066	-457.78934883220415	689.0471580798467	3968.495709949972	-498.41027495924016	678.647818025766	4176.972012802462	-533.9974957806088	-103.03840825557221	3884.651537399134	-345.6929465347318	237.4380765980353	4002.005536807418	-370.4202476527948	622.4927978757057	4253.243646499214	-454.0725573500738	670.1939212946911	3995.4873502141663	-348.2982273382716	681.3155607989816	4126.077509028187	-343.7105745765083	673.2558835130396	4321.519629424468	-497.35111410463963	-676.6054340804918	3685.8882305952034	-491.2135671227304	-923.3900166963732	3562.3944721223706	-436.38777263214786	-789.1340642301299	3562.8082924152004	-393.0938957413009	-559.5467912829475	3659.3997734634204	-650.3145601765468	-291.30331717916283	3714.2970809950625	-697.7798915389806	-26.669706238984553	3642.6315102641593	-608.3227851030454	83.52455809865617	3767.0168076488944	-568.556788963994	112.75991864840168	3720.1094971595285	-558.7285562610451	99.90094050989146	3651.6212084613207	-585.0678054916319	-613.7126974325487	3782.3672788231647	-371.68484801398495	-392.02341223156145	3981.0210859878553	-346.0875264079716	-129.24799318818148	3967.0339046517156	-246.58702374247582	2.62453941548576	3884.9960368125867	-245.007745788589	19.904036501953644	3959.037541022595	-216.47936576045848	-6.971242599616704	3988.5749817138235	-218.70942394879722
